<?xml version="1.0" encoding="UTF-8" standalone="no"?>
<!-- Created with Inkscape (http://www.inkscape.org/) -->

<svg
   xmlns:dc="http://purl.org/dc/elements/1.1/"
   xmlns:cc="http://creativecommons.org/ns#"
   xmlns:rdf="http://www.w3.org/1999/02/22-rdf-syntax-ns#"
   xmlns:svg="http://www.w3.org/2000/svg"
   xmlns="http://www.w3.org/2000/svg"
   xmlns:sodipodi="http://sodipodi.sourceforge.net/DTD/sodipodi-0.dtd"
   xmlns:inkscape="http://www.inkscape.org/namespaces/inkscape"
   width="277.75018mm"
   height="292.76932mm"
   viewBox="0 0 277.75018 292.76932"
   version="1.1"
   id="svg8"
   inkscape:version="0.92.4 (5da689c313, 2019-01-14)"
   sodipodi:docname="dlgameslogo.svg">
  <defs
     id="defs2" />
  <sodipodi:namedview
     id="base"
     pagecolor="#ffffff"
     bordercolor="#666666"
     borderopacity="1.0"
     inkscape:pageopacity="0"
     inkscape:pageshadow="2"
     inkscape:zoom="0.35"
     inkscape:cx="517.88869"
     inkscape:cy="592.62486"
     inkscape:document-units="mm"
     inkscape:current-layer="g21"
     showgrid="false"
     fit-margin-top="0"
     fit-margin-left="0"
     fit-margin-right="0"
     fit-margin-bottom="0"
     inkscape:window-width="1360"
     inkscape:window-height="705"
     inkscape:window-x="-8"
     inkscape:window-y="-8"
     inkscape:window-maximized="1"
     inkscape:pagecheckerboard="true"
     showborder="true" />
  <metadata
     id="metadata5">
    <rdf:RDF>
      <cc:Work
         rdf:about="">
        <dc:format>image/svg+xml</dc:format>
        <dc:type
           rdf:resource="http://purl.org/dc/dcmitype/StillImage" />
        <dc:title></dc:title>
      </cc:Work>
    </rdf:RDF>
  </metadata>
  <g
     inkscape:label="Layer 1"
     inkscape:groupmode="layer"
     id="layer1"
     transform="translate(31.191382,17.3754)">
    <g
       id="g21"
       transform="translate(-82.398814,-124.73214)">
      <path
         style="opacity:1;fill:#f04c12;fill-opacity:1;stroke-width:0.35277778"
         d="m 97.421748,399.92711 c 0.002,-0.16169 1.40067,-5.51497 3.106862,-11.89619 l 3.10217,-11.6022 61.15373,-35.31724 c 33.63454,-19.42448 61.30988,-35.56856 61.50073,-35.87573 0.26959,-0.43389 -3.79612,-7.73408 -18.22309,-32.72046 -10.21355,-17.68908 -18.57302,-32.36026 -18.57661,-32.60262 -0.0108,-0.72879 6.13706,-23.54802 6.34265,-23.54227 0.19473,0.005 54.5176,94.0039 54.85357,94.91676 0.13457,0.36566 -20.81866,12.6281 -76.21207,44.60153 -42.01871,24.25347 -76.545032,44.15014 -76.725142,44.21481 -0.18012,0.0647 -0.32538,-0.0147 -0.3228,-0.17639 z m 13.765572,-51.34615 c 0.007,-0.24936 1.39894,-5.60903 3.09419,-11.91038 l 3.08227,-11.457 28.54051,-16.47455 c 15.69728,-9.061 28.7947,-16.69218 29.10537,-16.95819 0.33921,-0.29044 1.81823,-5.1691 3.70244,-12.2128 1.72568,-6.45104 3.23228,-11.78767 3.34801,-11.85919 0.22401,-0.13846 17.80679,30.13133 17.60513,30.30827 -0.16682,0.14638 -86.72398,50.08938 -87.69609,50.60016 -0.62799,0.32997 -0.79126,0.32238 -0.78183,-0.0363 z M 51.438358,284.216 c -0.32849,-0.32849 -0.29645,-176.85926 0.0321,-176.85926 0.14701,0 4.11576,3.85088 8.81945,8.55751 l 8.55216,8.55751 v 70.74694 c 0,54.55502 0.0969,70.84382 0.42333,71.17027 0.32392,0.32391 9.1689,0.42333 37.661722,0.42333 h 37.2384 l 8.55216,8.55751 c 4.70369,4.70663 8.55216,8.67538 8.55216,8.81944 0,0.32506 -109.506502,0.35173 -109.831472,0.0267 z m 37.39444,-37.39444 c -0.32846,-0.32846 -0.29646,-102.07037 0.0321,-102.07037 0.14701,0 4.11576,3.85088 8.81944,8.55751 l 8.552172,8.5575 v 33.49534 33.49535 l 8.82964,8.85454 c 4.8563,4.87 8.71922,8.96497 8.58426,9.09993 -0.31416,0.31416 -34.503642,0.32417 -34.817612,0.0102 z M 226.45321,219.21393 c -15.42795,-8.90411 -28.53799,-16.44122 -29.13344,-16.74914 -1.05063,-0.5433 -1.43374,-0.4655 -12.96183,2.63207 -6.53357,1.75556 -11.94888,3.12225 -12.03403,3.0371 -0.28244,-0.28244 17.08265,-30.04396 17.57094,-30.11433 0.63535,-0.0916 87.92254,50.42011 87.86925,50.84851 -0.031,0.24946 -14.45227,4.31496 -22.51675,6.34771 -0.53817,0.13565 -8.48565,-4.28105 -28.79414,-16.00192 z m -105.39253,2.55478 c 0.0145,-0.55772 54.60993,-94.81176 54.99228,-94.93921 0.21289,-0.071 34.84511,19.76513 76.96048,44.08021 57.88758,33.42107 76.41763,44.27561 75.93503,44.48125 -0.35109,0.14961 -5.6871,1.62034 -11.85774,3.26829 -10.98926,2.93482 -11.24226,2.98445 -12.33399,2.4199 -0.61303,-0.31701 -28.17441,-16.19928 -61.24751,-35.29394 -36.64296,-21.1557 -60.41082,-34.67656 -60.84432,-34.61259 -0.53648,0.0791 -5.22885,7.93156 -19.08351,31.93513 -10.10466,17.5066 -18.60817,32.04796 -18.8967,32.31413 -0.28852,0.26618 -5.44583,1.7881 -11.46069,3.38205 -6.01486,1.59395 -11.21393,2.97798 -11.55348,3.07561 -0.33954,0.0976 -0.61398,0.0478 -0.60985,-0.11083 z"
         id="path23"
         inkscape:connector-curvature="0" />
    </g>
  </g>
</svg>
