<?xml version="1.0" encoding="UTF-8" standalone="no"?>
<!-- Created with Inkscape (http://www.inkscape.org/) -->

<svg
   xmlns:dc="http://purl.org/dc/elements/1.1/"
   xmlns:cc="http://creativecommons.org/ns#"
   xmlns:rdf="http://www.w3.org/1999/02/22-rdf-syntax-ns#"
   xmlns:svg="http://www.w3.org/2000/svg"
   xmlns="http://www.w3.org/2000/svg"
   xmlns:sodipodi="http://sodipodi.sourceforge.net/DTD/sodipodi-0.dtd"
   xmlns:inkscape="http://www.inkscape.org/namespaces/inkscape"
   width="900mm"
   height="381mm"
   viewBox="0 0 900 381"
   version="1.1"
   id="svg8"
   inkscape:version="0.92.4 (5da689c313, 2019-01-14)"
   sodipodi:docname="dvlyongames.svg">
  <defs
     id="defs2" />
  <sodipodi:namedview
     id="base"
     pagecolor="#ffffff"
     bordercolor="#666666"
     borderopacity="1.0"
     inkscape:pageopacity="0"
     inkscape:pageshadow="2"
     inkscape:zoom="0.175"
     inkscape:cx="1844.0538"
     inkscape:cy="643.99133"
     inkscape:document-units="mm"
     inkscape:current-layer="text40"
     showgrid="false"
     fit-margin-top="0"
     fit-margin-left="0"
     fit-margin-right="0"
     fit-margin-bottom="0"
     inkscape:window-width="1360"
     inkscape:window-height="705"
     inkscape:window-x="-8"
     inkscape:window-y="-8"
     inkscape:window-maximized="1"
     inkscape:pagecheckerboard="true"
     showborder="true"
     scale-x="1" />
  <metadata
     id="metadata5">
    <rdf:RDF>
      <cc:Work
         rdf:about="">
        <dc:format>image/svg+xml</dc:format>
        <dc:type
           rdf:resource="http://purl.org/dc/dcmitype/StillImage" />
        <dc:title></dc:title>
      </cc:Work>
    </rdf:RDF>
  </metadata>
  <g
     inkscape:label="Layer 1"
     inkscape:groupmode="layer"
     id="layer1"
     transform="translate(85.422623,62.077378)">
    <g
       aria-label="DvLyon
Games"
       style="font-style:normal;font-weight:normal;font-size:50.79999924px;line-height:1.25;font-family:sans-serif;letter-spacing:0px;word-spacing:0px;fill:#000000;fill-opacity:1;stroke:none;stroke-width:0.26458332"
       id="text40">
      <g
         id="g80"
         style="fill:#f04c15;fill-opacity:1">
        <path
           inkscape:connector-curvature="0"
           id="path23"
           d="m 5.195555,275.19497 c 0.002,-0.16169 1.40067,-5.51497 3.10686,-11.89619 l 3.10217,-11.6022 61.153734,-35.31724 c 33.634541,-19.42448 61.309881,-35.56856 61.500731,-35.87573 0.26959,-0.43389 -3.79612,-7.73408 -18.22309,-32.72046 -10.21355,-17.68908 -18.573021,-32.36026 -18.576611,-32.60262 -0.0108,-0.72879 6.137061,-23.548023 6.342651,-23.542273 0.19473,0.005 54.5176,94.003903 54.85357,94.916763 0.13457,0.36566 -20.81866,12.6281 -76.212071,44.60153 -42.018714,24.25347 -76.545034,44.15014 -76.725144,44.21481 -0.18012,0.0647 -0.32538,-0.0147 -0.3228,-0.17639 z m 13.76557,-51.34615 c 0.007,-0.24936 1.39894,-5.60903 3.09419,-11.91038 l 3.08227,-11.457 28.540514,-16.47455 c 15.69728,-9.061 28.7947,-16.69218 29.10537,-16.95819 0.33921,-0.29044 1.81823,-5.1691 3.70244,-12.2128 1.72568,-6.45104 3.23228,-11.78767 3.34801,-11.85919 0.22401,-0.13846 17.806791,30.13133 17.605131,30.30827 -0.16682,0.14638 -86.723985,50.08938 -87.696095,50.60016 -0.62799,0.32997 -0.79126,0.32238 -0.78183,-0.0363 z m -59.74896,-64.36496 c -0.3285,-0.32849 -0.29646,-176.859258 0.0321,-176.859258 0.14701,0 4.11576,3.85088 8.81944,8.55751 l 8.55217,8.55750967 V 70.486562 c 0,54.555018 0.0969,70.843818 0.42333,71.170268 0.32391,0.32391 9.1689,0.42333 37.66172,0.42333 h 37.238404 l 8.55216,8.55751 c 4.70369,4.70663 8.55216,8.67538 8.55216,8.81944 0,0.32506 -109.506504,0.35173 -109.831484,0.0267 z m 37.39444,-37.39444 c -0.32846,-0.32846 -0.29646,-102.070368 0.0321,-102.070368 0.14701,0 4.11576005,3.85088 8.81944,8.55751 l 8.55217,8.5575 v 33.49534 33.495348 l 8.82964,8.85454 c 4.8563,4.87 8.71922,8.96497 8.58426,9.09993 -0.31416,0.31416 -34.50364,0.32417 -34.81761,0.0102 z M 134.22702,94.481787 c -15.42795,-8.904105 -28.53799,-16.441215 -29.13344,-16.749135 -1.05063,-0.5433 -1.43374,-0.4655 -12.961831,2.63207 -6.53357,1.75556 -11.94888,3.12225 -12.03403,3.0371 -0.28244,-0.28244 17.08265,-30.04396 17.57094,-30.11433 0.63535,-0.0916 87.922541,50.420108 87.869251,50.848508 -0.031,0.24946 -14.45227,4.31496 -22.51675,6.34771 -0.53817,0.13565 -8.48565,-4.28105 -28.79414,-16.001923 z m -105.392535,2.55478 c 0.0145,-0.55772 54.609934,-94.8117553 54.992284,-94.9392053 0.21289,-0.071 34.845111,19.7651303 76.960481,44.0802103 57.88758,33.42107 76.41763,44.275605 75.93503,44.481245 -0.35109,0.14961 -5.6871,1.62034 -11.85774,3.26829 -10.98926,2.93482 -11.24226,2.98445 -12.33399,2.4199 -0.61303,-0.31701 -28.17441,-16.199275 -61.24751,-35.293935 -36.64296,-21.1557 -60.410821,-34.67656 -60.844321,-34.61259 -0.53648,0.0791 -5.22885,7.93156 -19.08351,31.93513 -10.10466,17.5066 -18.60817,32.047955 -18.8967,32.314125 -0.28852,0.26618 -5.44583,1.7881 -11.460694,3.38205 -6.01486,1.59395 -11.21393,2.97798 -11.55348,3.07561 -0.33954,0.0976 -0.61398,0.0478 -0.60985,-0.11083 z"
           style="fill:#f04c15;stroke-width:0.35277778;fill-opacity:1" />
        <path
           inkscape:connector-curvature="0"
           id="path44"
           style="font-style:normal;font-variant:normal;font-weight:normal;font-stretch:normal;font-size:141.1111145px;font-family:'Saira Stencil One';-inkscape-font-specification:'Saira Stencil One';fill:#f04c15;stroke-width:0.26458332;fill-opacity:1"
           d="m 285.09486,16.219131 h 28.22222 v 97.084449 h -28.22222 z m 34.14889,75.49445 h 1.12889 q 6.91444,0 9.73666,-0.56445 2.96334,-0.705553 4.37445,-3.104443 1.55222,-2.54 1.69333,-8.043333 0.28222,-7.055556 0.28222,-15.240001 0,-8.043333 -0.28222,-15.381111 -0.28222,-5.503334 -1.83444,-8.043334 -1.41111,-2.54 -4.65667,-3.104444 -3.24555,-0.423334 -9.31333,-0.423334 h -1.12889 v -21.59 h 1.12889 q 11.28889,0 18.76778,0.987778 7.62,0.987777 12.55888,3.104444 4.79778,2.116667 7.62,5.785556 2.82223,3.668889 4.09223,9.172222 1.12889,4.938889 1.41111,11.712223 0.42333,6.632222 0.42333,17.78 0,11.288889 -0.42333,17.921114 -0.28222,6.63222 -1.41111,11.571113 -1.27,5.50333 -4.09223,9.172219 -2.82222,3.66889 -7.62,5.78556 -4.93888,2.11666 -12.55888,3.10444 -7.47889,0.98778 -18.76778,0.98778 h -1.12889 z" />
        <path
           inkscape:connector-curvature="0"
           id="path46"
           style="font-style:normal;font-variant:normal;font-weight:normal;font-stretch:normal;font-size:141.1111145px;font-family:'Saira Stencil One';-inkscape-font-specification:'Saira Stencil One';fill:#f04c15;stroke-width:0.26458332;fill-opacity:1"
           d="m 373.24521,41.336909 h 26.67 l 19.33222,71.966671 h -24.97667 z m 41.91,33.866668 7.33778,-33.866668 h 25.68222 l -21.02556,71.966671 h -1.69333 z" />
        <path
           inkscape:connector-curvature="0"
           id="path48"
           style="font-style:normal;font-variant:normal;font-weight:normal;font-stretch:normal;font-size:141.1111145px;font-family:'Saira Stencil One';-inkscape-font-specification:'Saira Stencil One';fill:#f04c15;stroke-width:0.26458332;fill-opacity:1"
           d="m 458.72767,16.219131 h 28.22222 v 97.084449 h -28.22222 z m 34.14889,74.365557 h 30.19778 v 22.718892 h -30.19778 z" />
        <path
           inkscape:connector-curvature="0"
           id="path50"
           style="font-style:normal;font-variant:normal;font-weight:normal;font-stretch:normal;font-size:141.1111145px;font-family:'Saira Stencil One';-inkscape-font-specification:'Saira Stencil One';fill:#f04c15;stroke-width:0.26458332;fill-opacity:1"
           d="m 554.40322,112.88025 q -12.7,0 -17.07445,-7.76112 -1.97555,-3.38666 -2.68111,-8.184439 -0.70556,-4.93889 -0.70556,-11.994443 V 41.336909 h 26.10556 v 32.596668 q 0,7.478891 0.14111,9.877781 0.28222,3.66889 0.84667,5.08 0.56444,1.55222 1.83444,1.97555 1.27,0.282223 4.51556,0.282223 h 1.41111 v 17.497779 q -5.64444,4.23334 -14.39333,4.23334 z m 9.73666,29.49222 q -7.33777,0 -17.21555,-0.84667 l -8.18445,-0.84667 V 122.4758 h 18.90889 q 5.08,0 9.87778,-0.28222 3.38667,-0.28222 4.93889,-1.41111 1.69333,-0.98778 1.97555,-3.52778 0.28223,-3.38667 0.28223,-7.19667 V 41.336909 h 26.10555 v 64.064451 q 0,11.28889 -0.98777,17.49777 -0.84667,6.20889 -4.09223,10.30112 -3.66889,4.65666 -11.14778,6.91444 -7.47888,2.25778 -20.46111,2.25778 z" />
        <path
           inkscape:connector-curvature="0"
           id="path52"
           style="font-style:normal;font-variant:normal;font-weight:normal;font-stretch:normal;font-size:141.1111145px;font-family:'Saira Stencil One';-inkscape-font-specification:'Saira Stencil One';fill:#f04c15;stroke-width:0.26458332;fill-opacity:1"
           d="m 657.11666,77.461354 q 0,-7.196666 -0.14111,-9.595555 -0.14111,-3.386667 -0.84667,-5.08 -0.70556,-1.834445 -2.25778,-2.257778 -1.69333,-0.423334 -4.65666,-0.423334 h -1.97556 V 40.20802 h 1.97556 q 12.27666,0 19.19111,1.975556 6.91444,1.834444 10.30111,6.208889 3.10444,3.951111 3.95111,10.583333 0.98778,6.491112 0.98778,18.485556 0,11.147774 -0.70556,17.356667 -0.56444,6.067779 -2.96333,10.018889 -2.68111,4.37445 -8.04333,6.63222 -5.36223,2.11667 -14.81667,2.68112 z m -7.90222,36.971116 q -12.27667,0 -19.19112,-1.83445 -6.91444,-1.83444 -10.30111,-6.20889 -3.10444,-3.95111 -4.09222,-10.442219 -0.84667,-6.491113 -0.84667,-18.485557 0,-11.006666 0.70556,-17.215555 0.70556,-6.20889 3.10444,-10.301112 2.54,-4.515556 7.90223,-6.632222 5.36222,-2.257778 14.81666,-2.822223 v 36.971112 q 0,7.196664 0.14111,9.454444 0.14112,3.38667 0.84667,5.080003 0.70556,1.69333 2.39889,2.11667 1.41111,0.42333 4.51556,0.42333 h 1.97555 v 19.896669 z" />
        <path
           inkscape:connector-curvature="0"
           id="path54"
           style="font-style:normal;font-variant:normal;font-weight:normal;font-stretch:normal;font-size:141.1111145px;font-family:'Saira Stencil One';-inkscape-font-specification:'Saira Stencil One';fill:#f04c15;stroke-width:0.26458332;fill-opacity:1"
           d="m 738.43415,79.295799 q 0,-7.478889 -0.14111,-9.877778 -0.28222,-3.951111 -0.70555,-5.221111 -0.56445,-1.411111 -1.97556,-1.693334 -1.41111,-0.423333 -4.51555,-0.423333 h -1.41111 V 44.441354 q 5.50333,-4.092223 14.39333,-4.092223 12.7,0 17.07444,7.761112 1.97556,3.386666 2.68112,8.325555 0.70555,4.797778 0.70555,11.853334 v 45.014448 h -26.10556 z m -40.78111,-37.95889 h 26.10556 v 71.966671 h -26.10556 z" />
        <path
           inkscape:connector-curvature="0"
           id="path56"
           style="font-style:normal;font-variant:normal;font-weight:normal;font-stretch:normal;font-size:141.1111145px;font-family:'Saira Stencil One';-inkscape-font-specification:'Saira Stencil One';fill:#f04c15;stroke-width:0.26458332;fill-opacity:1"
           d="m 350.53009,146.40422 q 5.64445,-0.28222 9.31334,-0.28222 12.7,0 23.28333,1.69333 5.36222,0.56444 10.30111,1.69333 v 20.17889 q -5.92667,-0.56444 -8.89,-0.98778 -2.39889,-0.14111 -7.76111,-0.70555 -5.36222,-0.28222 -7.05556,-0.28222 -8.60777,0 -12.7,0.42333 -3.95111,0.28222 -6.49111,1.69333 z m 9.31334,99.06 q -14.11112,0 -22.57778,-2.11667 -8.32556,-2.11666 -12.98222,-7.47889 -4.65667,-5.36222 -6.63223,-14.81666 -1.83444,-9.45445 -1.83444,-25.25889 0,-13.40556 1.27,-22.01334 1.27,-8.60777 4.37444,-14.11111 3.24556,-5.64444 8.74889,-8.60778 5.50334,-2.96333 14.39334,-4.09222 v 48.82445 q 0,10.01889 0.56444,15.38111 0.56444,5.22111 2.11667,8.04333 1.69333,2.96334 4.79777,4.09223 3.24556,1.12888 9.17223,1.12888 v 21.02556 z M 367.1812,207.082 h -10.01888 v -20.46111 h 36.68888 v 55.31555 q -6.63222,1.55222 -16.51,2.39889 -4.79777,0.70556 -10.16,0.84667 z" />
        <path
           inkscape:connector-curvature="0"
           id="path58"
           style="font-style:normal;font-variant:normal;font-weight:normal;font-stretch:normal;font-size:141.1111145px;font-family:'Saira Stencil One';-inkscape-font-specification:'Saira Stencil One';fill:#f04c15;stroke-width:0.26458332;fill-opacity:1"
           d="m 447.21326,199.74422 q 0,-3.66889 -0.28222,-5.22111 -0.28223,-1.55222 -1.69334,-2.25778 -1.27,-0.70556 -4.79778,-0.98778 -2.11666,-0.14111 -9.17222,-0.14111 -6.77333,0 -12.55889,0.56445 l -7.47889,0.42333 v -18.34445 q 13.26445,-2.54 28.64556,-2.54 11.85333,0 18.48556,1.69334 6.77333,1.69333 10.16,5.36222 2.96333,3.38667 3.81,8.60778 0.98777,5.22111 0.98777,14.53444 v 42.89778 h -26.10555 z m -20.88445,45.57889 q -9.73666,0 -14.39333,-5.36222 -4.65667,-5.50334 -4.65667,-16.51 0,-6.77334 0.98778,-10.86556 0.98778,-4.23333 3.38667,-6.63222 2.39889,-2.54 6.63222,-3.52778 4.23333,-1.12889 11.14778,-1.12889 l 11.85333,0.28222 v 12.55889 h -1.41111 q -3.24556,0 -4.23333,0.14111 -2.82223,0.14112 -2.96334,2.68112 -0.14111,0.84666 -0.14111,3.52777 0,2.11667 0.14111,3.24556 0.28223,1.12889 0.84667,1.83444 0.70556,0.98778 2.11667,1.12889 1.97555,0.28222 4.23333,0.28222 h 1.41111 V 241.372 q -3.10444,2.39889 -6.63222,3.10444 -3.38667,0.84667 -8.32556,0.84667 z" />
        <path
           inkscape:connector-curvature="0"
           id="path60"
           style="font-style:normal;font-variant:normal;font-weight:normal;font-stretch:normal;font-size:141.1111145px;font-family:'Saira Stencil One';-inkscape-font-specification:'Saira Stencil One';fill:#f04c15;stroke-width:0.26458332;fill-opacity:1"
           d="m 528.57704,200.44978 q 0,-3.38667 -0.70555,-5.22112 -0.56445,-1.41111 -1.83445,-1.69333 -1.12889,-0.42333 -4.09222,-0.42333 h -0.70556 v -17.63889 q 5.50334,-4.09222 15.24,-4.09222 4.37445,0 7.62,1.12888 3.24556,0.98778 5.50334,3.66889 5.08,6.20889 5.08,23.14223 v 45.01444 h -26.10556 z m 39.37,0 q 0,-3.38667 -0.70555,-5.22112 -0.56445,-1.41111 -1.83445,-1.69333 -1.12889,-0.42333 -4.09222,-0.42333 h -0.70555 q -0.28223,-3.66889 -0.84667,-7.62 -1.12889,-5.64445 -2.39889,-8.18445 5.92667,-5.92666 16.93333,-5.92666 11.99445,0 16.36889,7.76111 1.97556,3.38666 2.68111,8.32555 0.70556,4.79778 0.70556,11.85334 v 45.01444 h -26.10556 z m -78.74,-28.08112 h 26.10556 v 71.96667 h -26.10556 z" />
        <path
           inkscape:connector-curvature="0"
           id="path62"
           style="font-style:normal;font-variant:normal;font-weight:normal;font-stretch:normal;font-size:141.1111145px;font-family:'Saira Stencil One';-inkscape-font-specification:'Saira Stencil One';fill:#f04c15;stroke-width:0.26458332;fill-opacity:1"
           d="m 639.97323,201.29644 h 9.87778 q 0,-7.90222 -1.55222,-10.16 -0.84667,-1.27 -2.25778,-1.55222 -1.41111,-0.42333 -4.09222,-0.42333 h -1.97556 v -17.92112 h 1.97556 q 12.13555,0 18.62666,1.97556 6.63223,1.97556 9.73667,6.49111 2.82222,3.95111 3.38667,10.16 0.70555,6.20889 0.70555,18.62667 v 5.64444 h -34.43111 z m 4.79778,44.16778 q -12.98222,0 -20.46111,-2.11667 -7.33778,-2.25777 -11.00667,-7.05555 -3.24555,-4.23334 -4.23333,-10.44222 -0.98778,-6.35 -0.98778,-17.35667 0,-10.16 0.70556,-16.08667 0.70555,-6.06778 2.96333,-10.30111 2.54,-4.65667 7.76111,-7.19667 5.36222,-2.68111 14.53444,-3.38666 v 42.61555 q 0,4.79778 0.42334,6.91445 0.42333,1.97555 1.97555,2.96333 1.69334,1.12889 5.22111,1.27 4.51556,0.28222 9.59556,0.28222 9.03111,0 13.12333,-0.42333 l 7.19667,-0.56444 v 18.20333 q -5.64444,1.69333 -15.52222,2.25778 -4.79778,0.42333 -11.28889,0.42333 z" />
        <path
           inkscape:connector-curvature="0"
           id="path64"
           style="font-style:normal;font-variant:normal;font-weight:normal;font-stretch:normal;font-size:141.1111145px;font-family:'Saira Stencil One';-inkscape-font-specification:'Saira Stencil One';fill:#f04c15;stroke-width:0.26458332;fill-opacity:1"
           d="m 742.08697,191.98311 q -2.68111,-0.14111 -7.33777,-0.70556 -8.74889,-0.84666 -14.11111,-0.84666 h -4.65667 v -19.19112 q 10.01889,0 19.05,1.41112 l 7.05555,1.27 z m -20.46111,30.48 q 0,-2.11667 -0.70555,-2.68111 -0.70556,-0.56445 -2.96334,-0.84667 l -15.24,-2.11667 q -5.64444,-0.84666 -9.17222,-2.68111 -3.38667,-1.83444 -5.08,-4.93889 -1.69333,-2.68111 -2.25778,-6.49111 -0.56444,-3.81 -0.56444,-9.45444 0,-11.57111 6.91444,-16.93334 5.78556,-4.23333 17.49778,-4.93888 v 22.15444 q 0,2.11667 0.56445,2.82222 0.56444,0.56445 3.52777,0.98778 l 16.93334,2.25778 q 3.66889,0.42333 6.35,1.55222 2.68111,0.98778 4.51555,3.10445 4.09223,4.51555 4.09223,17.35666 0,13.54667 -6.91445,18.90889 -6.06778,4.51556 -17.49778,4.79778 z m -5.92666,23.00111 q -11.28889,-0.14111 -19.75556,-1.41111 l -8.04333,-1.27 v -18.06222 q 5.64444,0.56444 15.24,1.12889 5.36222,0.28222 7.62,0.28222 h 4.93889 z" />
      </g>
    </g>
  </g>
</svg>
