<?xml version="1.0" encoding="UTF-8" standalone="no"?>
<!-- Created with Inkscape (http://www.inkscape.org/) -->

<svg
   xmlns:dc="http://purl.org/dc/elements/1.1/"
   xmlns:cc="http://creativecommons.org/ns#"
   xmlns:rdf="http://www.w3.org/1999/02/22-rdf-syntax-ns#"
   xmlns:svg="http://www.w3.org/2000/svg"
   xmlns="http://www.w3.org/2000/svg"
   xmlns:sodipodi="http://sodipodi.sourceforge.net/DTD/sodipodi-0.dtd"
   xmlns:inkscape="http://www.inkscape.org/namespaces/inkscape"
   width="1248.5283mm"
   height="292.76929mm"
   viewBox="0 0 1248.5283 292.76929"
   version="1.1"
   id="svg8"
   inkscape:version="0.92.4 (5da689c313, 2019-01-14)"
   sodipodi:docname="promoheader.svg">
  <defs
     id="defs2" />
  <sodipodi:namedview
     id="base"
     pagecolor="#ffffff"
     bordercolor="#666666"
     borderopacity="1.0"
     inkscape:pageopacity="0"
     inkscape:pageshadow="2"
     inkscape:zoom="0.175"
     inkscape:cx="2372.2253"
     inkscape:cy="519.47344"
     inkscape:document-units="mm"
     inkscape:current-layer="g82"
     showgrid="false"
     fit-margin-top="0"
     fit-margin-left="0"
     fit-margin-right="0"
     fit-margin-bottom="0"
     inkscape:window-width="1360"
     inkscape:window-height="705"
     inkscape:window-x="-8"
     inkscape:window-y="-8"
     inkscape:window-maximized="1"
     inkscape:pagecheckerboard="true"
     showborder="true"
     scale-x="1" />
  <metadata
     id="metadata5">
    <rdf:RDF>
      <cc:Work
         rdf:about="">
        <dc:format>image/svg+xml</dc:format>
        <dc:type
           rdf:resource="http://purl.org/dc/dcmitype/StillImage" />
        <dc:title></dc:title>
      </cc:Work>
    </rdf:RDF>
  </metadata>
  <g
     inkscape:label="Layer 1"
     inkscape:groupmode="layer"
     id="layer1"
     transform="translate(225.16799,6.7920647)">
    <g
       id="g25">
      <g
         id="g82"
         style="fill:#f2f2f2">
        <g
           id="g107">
          <g
             style="fill:#f2f2f2"
             transform="matrix(0.97382999,0,0,0.97382999,-64.358572,-166.49232)"
             id="g21">
            <g
               transform="matrix(0.91590804,0,0,0.91590804,89.77217,21.955373)"
               id="text25"
               style="font-style:normal;font-variant:normal;font-weight:normal;font-stretch:normal;font-size:211.66667175px;line-height:1.25;font-family:'Blackoak Std';-inkscape-font-specification:'Blackoak Std';letter-spacing:0px;word-spacing:0px;fill:#f2f2f2;fill-opacity:1;stroke:none;stroke-width:0.26458332"
               aria-label="DvLyon">
              <path
                 inkscape:connector-curvature="0"
                 id="path78"
                 style="font-style:normal;font-variant:normal;font-weight:normal;font-stretch:normal;font-size:211.66667175px;font-family:'Saira Stencil One';-inkscape-font-specification:'Saira Stencil One';fill:#f2f2f2;stroke-width:0.26458332"
                 d="m 402.31784,189.17094 h 42.33334 v 145.62667 h -42.33334 z m 51.22334,113.24167 h 1.69333 q 10.37167,0 14.605,-0.84667 4.445,-1.05833 6.56167,-4.65667 2.32833,-3.81 2.54,-12.065 0.42333,-10.58333 0.42333,-22.86 0,-12.065 -0.42333,-23.07166 -0.42334,-8.25501 -2.75167,-12.06501 -2.11667,-3.81 -6.985,-4.65666 -4.86833,-0.635 -13.97,-0.635 h -1.69333 v -32.385 h 1.69333 q 16.93333,0 28.15167,1.48166 11.43,1.48167 18.83833,4.65667 7.19667,3.175 11.43,8.67833 4.23334,5.50334 6.13834,13.75834 1.69333,7.40833 2.11666,17.56833 0.635,9.94834 0.635,26.67 0,16.93334 -0.635,26.88167 -0.42333,9.94833 -2.11666,17.35667 -1.905,8.255 -6.13834,13.75833 -4.23333,5.50333 -11.43,8.67833 -7.40833,3.175 -18.83833,4.65667 -11.21834,1.48167 -28.15167,1.48167 h -1.69333 z" />
              <path
                 inkscape:connector-curvature="0"
                 id="path80"
                 style="font-style:normal;font-variant:normal;font-weight:normal;font-stretch:normal;font-size:211.66667175px;font-family:'Saira Stencil One';-inkscape-font-specification:'Saira Stencil One';fill:#f2f2f2;stroke-width:0.26458332"
                 d="m 534.54336,226.8476 h 40.005 l 28.99834,107.95001 h -37.465 z m 62.86501,50.80001 11.00666,-50.80001 h 38.52334 l -31.53834,107.95001 h -2.54 z" />
              <path
                 inkscape:connector-curvature="0"
                 id="path82"
                 style="font-style:normal;font-variant:normal;font-weight:normal;font-stretch:normal;font-size:211.66667175px;font-family:'Saira Stencil One';-inkscape-font-specification:'Saira Stencil One';fill:#f2f2f2;stroke-width:0.26458332"
                 d="m 662.76706,189.17094 h 42.33334 v 145.62667 h -42.33334 z m 51.22334,111.54833 h 45.29666 v 34.07834 H 713.9904 Z" />
              <path
                 inkscape:connector-curvature="0"
                 id="path84"
                 style="font-style:normal;font-variant:normal;font-weight:normal;font-stretch:normal;font-size:211.66667175px;font-family:'Saira Stencil One';-inkscape-font-specification:'Saira Stencil One';fill:#f2f2f2;stroke-width:0.26458332"
                 d="m 806.28038,334.16261 q -19.05,0 -25.61167,-11.64167 -2.96333,-5.08 -4.02166,-12.27667 -1.05834,-7.40833 -1.05834,-17.99166 V 226.8476 h 39.15834 v 48.89501 q 0,11.21833 0.21166,14.81666 0.42334,5.50334 1.27,7.62 0.84667,2.32834 2.75167,2.96334 1.905,0.42333 6.77333,0.42333 h 2.11667 v 26.24667 q -8.46667,6.35 -21.59,6.35 z m 14.605,44.23833 q -11.00667,0 -25.82333,-1.27 l -12.27667,-1.27 v -27.305 h 28.36333 q 7.62,0 14.81667,-0.42333 5.08,-0.42334 7.40833,-2.11667 2.54,-1.48167 2.96334,-5.29167 0.42333,-5.08 0.42333,-10.795 V 226.8476 h 39.15833 v 96.09667 q 0,16.93334 -1.48166,26.24667 -1.27,9.31333 -6.13834,15.45167 -5.50333,6.985 -16.72166,10.37167 -11.21834,3.38666 -30.69167,3.38666 z" />
              <path
                 inkscape:connector-curvature="0"
                 id="path86"
                 style="font-style:normal;font-variant:normal;font-weight:normal;font-stretch:normal;font-size:211.66667175px;font-family:'Saira Stencil One';-inkscape-font-specification:'Saira Stencil One';fill:#f2f2f2;stroke-width:0.26458332"
                 d="m 960.35057,281.03427 q 0,-10.795 -0.21166,-14.39333 -0.21167,-5.08 -1.27,-7.62 -1.05834,-2.75167 -3.38667,-3.38667 -2.54,-0.635 -6.985,-0.635 h -2.96333 v -29.845 h 2.96333 q 18.415,0 28.78667,2.96333 10.37166,2.75167 15.45166,9.31334 4.65667,5.92667 5.92667,15.875 1.48166,9.73667 1.48166,27.72833 0,16.72167 -1.05833,26.035 -0.84666,9.10167 -4.445,15.02834 -4.02166,6.56166 -12.065,9.94833 -8.04333,3.175 -22.225,4.02167 z m -11.85333,55.45667 q -18.415,0 -28.78667,-2.75167 -10.37166,-2.75166 -15.45166,-9.31333 -4.65667,-5.92667 -6.13834,-15.66333 -1.27,-9.73667 -1.27,-27.72834 0,-16.51 1.05833,-25.82333 1.05834,-9.31333 4.65667,-15.45167 3.81,-6.77333 11.85334,-9.94833 8.04333,-3.38667 22.225,-4.23334 v 55.45667 q 0,10.795 0.21166,14.18167 0.21167,5.08 1.27,7.62 1.05834,2.54 3.59834,3.175 2.11666,0.635 6.77333,0.635 h 2.96333 v 29.845 z" />
              <path
                 inkscape:connector-curvature="0"
                 id="path88"
                 style="font-style:normal;font-variant:normal;font-weight:normal;font-stretch:normal;font-size:211.66667175px;font-family:'Saira Stencil One';-inkscape-font-specification:'Saira Stencil One';fill:#f2f2f2;stroke-width:0.26458332"
                 d="m 1082.3268,283.78594 q 0,-11.21833 -0.2116,-14.81667 -0.4234,-5.92666 -1.0584,-7.83166 -0.8466,-2.11667 -2.9633,-2.54 -2.1167,-0.635 -6.7733,-0.635 h -2.1167 v -26.45834 q 8.255,-6.13833 21.59,-6.13833 19.05,0 25.6117,11.64167 2.9633,5.08 4.0216,12.48833 1.0584,7.19667 1.0584,17.78 v 67.52167 h -39.1584 z m -61.1717,-56.93834 h 39.1584 v 107.95001 h -39.1584 z" />
            </g>
          </g>
          <path
             inkscape:connector-curvature="0"
             id="path23"
             d="m 95.909841,285.7783 c 0.002,-0.16169 1.40067,-5.51497 3.10686,-11.89619 l 3.102169,-11.6022 61.15373,-35.31724 c 33.63454,-19.42448 61.30988,-35.56856 61.50073,-35.87573 0.26959,-0.43389 -3.79612,-7.73408 -18.22309,-32.72046 -10.21355,-17.68908 -18.57302,-32.36026 -18.57661,-32.60262 -0.0108,-0.72879 6.13706,-23.54802 6.34265,-23.54227 0.19473,0.005 54.5176,94.0039 54.85357,94.91676 0.13457,0.36566 -20.81866,12.6281 -76.21207,44.60153 -42.01871,24.25347 -76.545029,44.15014 -76.725139,44.21481 -0.18012,0.0647 -0.32538,-0.0147 -0.3228,-0.17639 z m 13.765569,-51.34615 c 0.007,-0.24936 1.39894,-5.60903 3.09419,-11.91038 l 3.08227,-11.457 28.54051,-16.47455 c 15.69728,-9.061 28.7947,-16.69218 29.10537,-16.95819 0.33921,-0.29044 1.81823,-5.1691 3.70244,-12.2128 1.72568,-6.45104 3.23228,-11.78767 3.34801,-11.85919 0.22401,-0.13846 17.80679,30.13133 17.60513,30.30827 -0.16682,0.14638 -86.72398,50.08938 -87.69609,50.60016 -0.62799,0.32997 -0.79126,0.32238 -0.78183,-0.0363 z M 49.926451,170.06719 c -0.3285,-0.32849 -0.29646,-176.8592547 0.0321,-176.8592547 0.14701,0 4.11576,3.8508799 8.81944,8.55751 l 8.55217,8.5575097 v 70.74694 c 0,54.555015 0.0969,70.843815 0.42333,71.170265 0.32391,0.32391 9.1689,0.42333 37.661719,0.42333 h 37.2384 l 8.55216,8.55751 c 4.70369,4.70663 8.55216,8.67538 8.55216,8.81944 0,0.32506 -109.506499,0.35173 -109.831479,0.0267 z m 37.39444,-37.39444 c -0.32846,-0.32846 -0.29646,-102.070365 0.0321,-102.070365 0.14701,0 4.11576,3.85088 8.81944,8.55751 l 8.552169,8.5575 v 33.49534 33.495345 l 8.82964,8.85454 c 4.8563,4.87 8.71922,8.96497 8.58426,9.09993 -0.31416,0.31416 -34.503639,0.32417 -34.817609,0.0102 z M 224.9413,105.06512 c -15.42795,-8.904105 -28.53799,-16.441215 -29.13344,-16.749135 -1.05063,-0.5433 -1.43374,-0.4655 -12.96183,2.63207 -6.53357,1.75556 -11.94888,3.12225 -12.03403,3.0371 -0.28244,-0.28244 17.08265,-30.04396 17.57094,-30.11433 0.63535,-0.0916 87.92254,50.420105 87.86925,50.848505 -0.031,0.24946 -14.45227,4.31496 -22.51675,6.34771 -0.53817,0.13565 -8.48565,-4.28105 -28.79414,-16.00192 z m -105.39253,2.55478 c 0.0145,-0.55772 54.60993,-94.811755 54.99228,-94.939205 0.21289,-0.071 34.84511,19.76513 76.96048,44.08021 57.88758,33.42107 76.41763,44.275605 75.93503,44.481245 -0.35109,0.14961 -5.6871,1.62034 -11.85774,3.26829 -10.98926,2.93482 -11.24226,2.98445 -12.33399,2.4199 -0.61303,-0.31701 -28.17441,-16.199275 -61.24751,-35.293935 -36.64296,-21.1557 -60.41082,-34.67656 -60.84432,-34.61259 -0.53648,0.0791 -5.22885,7.93156 -19.08351,31.93513 -10.10466,17.5066 -18.60817,32.047955 -18.8967,32.314125 -0.28852,0.26618 -5.44583,1.7881 -11.46069,3.38205 -6.01486,1.59395 -11.21393,2.97798 -11.55348,3.07561 -0.33954,0.0976 -0.61398,0.0478 -0.60985,-0.11083 z"
             style="fill:#f2f2f2;stroke-width:0.35277778" />
          <g
             aria-label="DvLyon.com"
             style="font-style:normal;font-variant:normal;font-weight:normal;font-stretch:normal;font-size:50.79999924px;line-height:1.25;font-family:'Open Sans';-inkscape-font-specification:'Open Sans';letter-spacing:0px;word-spacing:0px;fill:#f2f2f2;fill-opacity:1;stroke:none;stroke-width:0.26458332"
             id="text27">
            <path
               inkscape:connector-curvature="0"
               d="m 589.37345,233.81415 q 0,9.07851 -5.01055,13.98984 -4.98574,4.91133 -14.03945,4.91133 H 558.59083 V 216.45086 H 571.142 q 8.73125,0 13.46895,4.46485 4.7625,4.46484 4.7625,12.89844 z m -10.16992,0.34726 q 0,-4.98574 -1.98438,-7.3918 -1.95957,-2.40605 -5.97793,-2.40605 h -2.85254 v 20.31504 h 2.18282 q 4.46484,0 6.54843,-2.57969 2.0836,-2.60449 2.0836,-7.9375 z"
               style="font-style:normal;font-variant:normal;font-weight:800;font-stretch:normal;font-family:'Open Sans';-inkscape-font-specification:'Open Sans Ultra-Bold';fill:#f2f2f2;stroke-width:0.26458332"
               id="path38" />
            <path
               inkscape:connector-curvature="0"
               d="m 602.69356,252.71532 -10.71562,-28.10371 h 10.12031 l 4.7625,16.61914 q 0.0248,0.12402 0.0992,0.42168 0.0744,0.29765 0.14883,0.71933 0.0744,0.39688 0.12402,0.86817 0.0744,0.44648 0.0744,0.84336 h 0.17363 q 0,-1.28985 0.44648,-2.80293 l 4.98575,-16.66875 h 10.0955 l -10.71562,28.10371 z"
               style="font-style:normal;font-variant:normal;font-weight:800;font-stretch:normal;font-family:'Open Sans';-inkscape-font-specification:'Open Sans Ultra-Bold';fill:#f2f2f2;stroke-width:0.26458332"
               id="path40" />
            <path
               inkscape:connector-curvature="0"
               d="m 626.95255,252.71532 v -36.26446 h 9.79785 v 28.35176 h 13.96504 v 7.9127 z"
               style="font-style:normal;font-variant:normal;font-weight:800;font-stretch:normal;font-family:'Open Sans';-inkscape-font-specification:'Open Sans Ultra-Bold';fill:#f2f2f2;stroke-width:0.26458332"
               id="path42" />
            <path
               inkscape:connector-curvature="0"
               d="m 652.55098,224.61161 h 10.21954 l 4.7625,16.12304 q 0.34726,1.26504 0.47128,3.05098 h 0.19844 q 0.19844,-1.71152 0.59531,-3.00137 l 4.88653,-16.17265 h 9.89707 l -11.1125,29.88964 q -2.13321,5.70508 -5.2586,8.06153 -3.10058,2.35644 -8.11113,2.35644 -1.93476,0 -3.96875,-0.42168 v -7.61504 q 1.31465,0.29766 3.00137,0.29766 1.28984,0 2.25723,-0.49609 0.96738,-0.4961 1.68671,-1.41387 0.71934,-0.89297 1.53789,-2.95176 z"
               style="font-style:normal;font-variant:normal;font-weight:800;font-stretch:normal;font-family:'Open Sans';-inkscape-font-specification:'Open Sans Ultra-Bold';fill:#f2f2f2;stroke-width:0.26458332"
               id="path44" />
            <path
               inkscape:connector-curvature="0"
               d="m 713.74414,238.60145 q 0,6.8957 -3.7207,10.76523 -3.6959,3.84473 -10.36836,3.84473 -6.39961,0 -10.19473,-3.94394 -3.77031,-3.94395 -3.77031,-10.66602 0,-6.8709 3.6959,-10.66602 3.7207,-3.81992 10.41797,-3.81992 4.14238,0 7.31738,1.76114 3.175,1.76113 4.88653,5.06015 1.73632,3.27422 1.73632,7.66465 z m -18.20664,0 q 0,3.62148 0.96739,5.53145 0.96738,1.88515 3.24941,1.88515 2.25723,0 3.175,-1.88515 0.94258,-1.90997 0.94258,-5.53145 0,-3.59668 -0.94258,-5.43223 -0.94258,-1.83554 -3.22461,-1.83554 -2.23242,0 -3.1998,1.83554 -0.96739,1.81075 -0.96739,5.43223 z"
               style="font-style:normal;font-variant:normal;font-weight:800;font-stretch:normal;font-family:'Open Sans';-inkscape-font-specification:'Open Sans Ultra-Bold';fill:#f2f2f2;stroke-width:0.26458332"
               id="path46" />
            <path
               inkscape:connector-curvature="0"
               d="m 736.98614,252.71532 v -15.3293 q 0,-2.80293 -0.81855,-4.2168 -0.79375,-1.43867 -2.57969,-1.43867 -2.45566,0 -3.54707,1.95957 -1.0914,1.95957 -1.0914,6.72207 v 12.30313 h -9.69864 v -28.10371 h 7.31739 l 1.21543,3.47265 h 0.5705 q 1.24024,-1.98437 3.42305,-2.97656 2.20762,-0.99219 5.06016,-0.99219 4.66328,0 7.24297,2.70371 2.60449,2.70371 2.60449,7.61504 v 18.28106 z"
               style="font-style:normal;font-variant:normal;font-weight:800;font-stretch:normal;font-family:'Open Sans';-inkscape-font-specification:'Open Sans Ultra-Bold';fill:#f2f2f2;stroke-width:0.26458332"
               id="path48" />
            <path
               inkscape:connector-curvature="0"
               d="m 752.06739,248.59774 q 0,-2.28203 1.33946,-3.52227 1.36425,-1.24023 3.94394,-1.24023 2.45566,0 3.77031,1.24023 1.31465,1.24024 1.31465,3.52227 0,2.23242 -1.36426,3.49746 -1.33945,1.24023 -3.7207,1.24023 -2.45566,0 -3.86953,-1.24023 -1.41387,-1.24023 -1.41387,-3.49746 z"
               style="font-style:normal;font-variant:normal;font-weight:800;font-stretch:normal;font-family:'Open Sans';-inkscape-font-specification:'Open Sans Ultra-Bold';fill:#f2f2f2;stroke-width:0.26458332"
               id="path50" />
            <path
               inkscape:connector-curvature="0"
               d="m 780.76641,253.21141 q -6.8957,0 -10.46758,-3.7207 -3.54707,-3.72071 -3.54707,-10.69082 0,-6.99492 3.84473,-10.83965 3.84473,-3.84473 10.93887,-3.84473 4.88652,0 9.20254,2.13321 l -2.85254,7.16855 q -1.76114,-0.76895 -3.24942,-1.21543 -1.48828,-0.47129 -3.10058,-0.47129 -2.35645,0 -3.64629,1.83555 -1.28985,1.83555 -1.28985,5.18418 0,6.74687 4.98575,6.74687 4.2664,0 8.18554,-2.48047 v 7.71426 q -3.7455,2.48047 -9.0041,2.48047 z"
               style="font-style:normal;font-variant:normal;font-weight:800;font-stretch:normal;font-family:'Open Sans';-inkscape-font-specification:'Open Sans Ultra-Bold';fill:#f2f2f2;stroke-width:0.26458332"
               id="path52" />
            <path
               inkscape:connector-curvature="0"
               d="m 822.19023,238.60145 q 0,6.8957 -3.7207,10.76523 -3.6959,3.84473 -10.36836,3.84473 -6.39961,0 -10.19472,-3.94394 -3.77032,-3.94395 -3.77032,-10.66602 0,-6.8709 3.6959,-10.66602 3.7207,-3.81992 10.41797,-3.81992 4.14238,0 7.31738,1.76114 3.175,1.76113 4.88653,5.06015 1.73632,3.27422 1.73632,7.66465 z m -18.20664,0 q 0,3.62148 0.96739,5.53145 0.96738,1.88515 3.24941,1.88515 2.25723,0 3.175,-1.88515 0.94258,-1.90997 0.94258,-5.53145 0,-3.59668 -0.94258,-5.43223 -0.94258,-1.83554 -3.22461,-1.83554 -2.23242,0 -3.1998,1.83554 -0.96739,1.81075 -0.96739,5.43223 z"
               style="font-style:normal;font-variant:normal;font-weight:800;font-stretch:normal;font-family:'Open Sans';-inkscape-font-specification:'Open Sans Ultra-Bold';fill:#f2f2f2;stroke-width:0.26458332"
               id="path54" />
            <path
               inkscape:connector-curvature="0"
               d="m 862.20019,252.71532 v -15.27969 q 0,-2.85254 -0.79375,-4.26641 -0.76895,-1.43867 -2.45567,-1.43867 -2.23242,0 -3.27421,1.90996 -1.0418,1.90996 -1.0418,5.97793 v 13.09688 h -9.72344 v -15.27969 q 0,-2.85254 -0.74414,-4.26641 -0.74414,-1.43867 -2.40605,-1.43867 -2.28203,0 -3.32383,2.03399 -1.0418,2.03398 -1.0418,6.64765 v 12.30313 h -9.69863 v -28.10371 h 7.31738 l 1.21543,3.47265 h 0.57051 q 1.11621,-1.93476 3.22461,-2.95176 2.1332,-1.01699 4.83691,-1.01699 6.07715,0 8.53281,3.6959 h 0.76895 q 1.19062,-1.73633 3.29902,-2.70371 2.13321,-0.99219 4.68809,-0.99219 4.98574,0 7.36699,2.55489 2.38125,2.55488 2.38125,7.76386 v 18.28106 z"
               style="font-style:normal;font-variant:normal;font-weight:800;font-stretch:normal;font-family:'Open Sans';-inkscape-font-specification:'Open Sans Ultra-Bold';fill:#f2f2f2;stroke-width:0.26458332"
               id="path56" />
          </g>
          <g
             transform="translate(-9.0714285,-3.0238095)"
             aria-label="By"
             style="font-style:normal;font-variant:normal;font-weight:normal;font-stretch:normal;font-size:50.79999924px;line-height:1.25;font-family:'Open Sans';-inkscape-font-specification:'Open Sans';letter-spacing:0px;word-spacing:0px;fill:#f2f2f2;fill-opacity:1;stroke:none;stroke-width:0.26458332"
             id="text31">
            <path
               inkscape:connector-curvature="0"
               d="m -216.09656,88.480722 h 35.13997 q 20.53277,0 30.45465,6.13227 9.99078,6.063368 9.99078,18.948028 0,8.47493 -4.34082,14.4694 -4.34082,5.99447 -11.43772,7.71701 v 0.68902 q 9.37066,2.48047 13.57367,8.26823 4.20302,5.78776 4.20302,15.02062 0,13.71148 -10.33529,21.6352 -10.26638,7.85482 -28.04307,7.85482 h -39.20519 z m 27.21625,38.653968 h 8.19933 q 5.85666,0 9.02615,-2.41156 3.23839,-2.41157 3.23839,-7.1658 0,-8.47494 -12.81575,-8.47494 h -7.64812 z m 0,19.91266 v 21.15288 h 9.57737 q 12.74685,0 12.74685,-10.74869 0,-5.02984 -3.44509,-7.71702 -3.3762,-2.68717 -9.85298,-2.68717 z"
               style="font-style:normal;font-variant:normal;font-weight:800;font-stretch:normal;font-size:141.1111145px;font-family:'Open Sans';-inkscape-font-specification:'Open Sans Ultra-Bold';fill:#f2f2f2;stroke-width:0.26458332"
               id="path33" />
            <path
               inkscape:connector-curvature="0"
               d="m -132.03623,111.14945 h 28.38759 l 13.229168,44.78624 q 0.964627,3.514 1.309137,8.47494 h 0.551215 q 0.551215,-4.75423 1.653646,-8.33713 l 13.573676,-44.92405 h 27.491863 l -30.868056,83.0268 q -5.925565,15.84744 -14.607205,22.39313 -8.612739,6.54568 -22.530924,6.54568 -5.37435,0 -11.02431,-1.17134 v -21.15288 q 3.6518,0.82682 8.33713,0.82682 3.5829,0 6.27008,-1.37804 2.68717,-1.37804 4.68533,-3.92741 1.99815,-2.48047 4.27192,-8.19932 z"
               style="font-style:normal;font-variant:normal;font-weight:800;font-stretch:normal;font-size:141.1111145px;font-family:'Open Sans';-inkscape-font-specification:'Open Sans Ultra-Bold';fill:#f2f2f2;stroke-width:0.26458332"
               id="path35" />
          </g>
        </g>
      </g>
    </g>
  </g>
</svg>
